<svg width="27" height="27" viewBox="0 0 27 27" fill="none" xmlns="http://www.w3.org/2000/svg">
<g id="solar:download-bold">
<g id="Group">
<path id="Vector" fill-rule="evenodd" clip-rule="evenodd" d="M13.4999 2.12981C13.2895 2.12981 13.0878 2.21339 12.939 2.36215C12.7902 2.51092 12.7067 2.71269 12.7067 2.92308V14.5291L10.9297 12.455C10.862 12.3758 10.7792 12.3108 10.6863 12.2636C10.5934 12.2164 10.4921 12.1879 10.3882 12.1799C10.2843 12.1718 10.1798 12.1843 10.0807 12.2166C9.98162 12.249 9.88987 12.3005 9.8107 12.3683C9.73153 12.4361 9.66648 12.5188 9.61928 12.6117C9.57207 12.7046 9.54363 12.8059 9.53558 12.9098C9.52752 13.0137 9.54002 13.1182 9.57234 13.2173C9.60466 13.3164 9.65619 13.4081 9.72397 13.4873L12.897 17.1892C12.9715 17.2763 13.064 17.3462 13.168 17.3942C13.2721 17.4421 13.3853 17.4669 13.4999 17.4669C13.6145 17.4669 13.7277 17.4421 13.8318 17.3942C13.9359 17.3462 14.0283 17.2763 14.1028 17.1892L17.2759 13.4873C17.3437 13.4081 17.3952 13.3164 17.4275 13.2173C17.4599 13.1182 17.4723 13.0137 17.4643 12.9098C17.4562 12.8059 17.4278 12.7046 17.3806 12.6117C17.3334 12.5188 17.2683 12.4361 17.1892 12.3683C17.11 12.3005 17.0182 12.249 16.9192 12.2166C16.8201 12.1843 16.7156 12.1718 16.6117 12.1799C16.5078 12.1879 16.4065 12.2164 16.3135 12.2636C16.2206 12.3108 16.1379 12.3758 16.0701 12.455L14.2932 14.5281V2.92308C14.2932 2.71269 14.2096 2.51092 14.0609 2.36215C13.9121 2.21339 13.7103 2.12981 13.4999 2.12981Z" fill="white"/>
<path id="Vector_2" d="M15.8796 10.3269V10.7267C16.3739 10.551 16.9125 10.5437 17.4114 10.7058C17.9104 10.8679 18.3417 11.1905 18.6383 11.6232C18.9349 12.056 19.0802 12.5746 19.0514 13.0984C19.0227 13.6223 18.8216 14.1219 18.4794 14.5196L15.3063 18.2215C15.0829 18.4821 14.8058 18.6912 14.494 18.8346C14.1821 18.978 13.843 19.0522 13.4998 19.0522C13.1566 19.0522 12.8174 18.978 12.5056 18.8346C12.1938 18.6912 11.9166 18.4821 11.6932 18.2215L8.52016 14.5196C8.17893 14.1217 7.97862 13.6223 7.95033 13.0988C7.92205 12.5754 8.06737 12.0573 8.36373 11.6249C8.66009 11.1926 9.09092 10.8702 9.5893 10.7077C10.0877 10.5453 10.6258 10.552 11.12 10.7267V10.3269H9.26901C6.27785 10.3269 4.78122 10.3269 3.85256 11.2566C2.92285 12.1853 2.92285 13.6819 2.92285 16.6731V17.7308C2.92285 20.7219 2.92285 22.2186 3.85256 23.1472C4.78122 24.0769 6.27785 24.0769 9.26901 24.0769H17.7305C20.7217 24.0769 22.2183 24.0769 23.147 23.1472C24.0767 22.2186 24.0767 20.7219 24.0767 17.7308V16.6731C24.0767 13.6819 24.0767 12.1853 23.147 11.2566C22.2183 10.3269 20.7217 10.3269 17.7305 10.3269H15.8796Z" fill="white"/>
</g>
</g>
</svg>
