<svg width="70" height="70" viewBox="0 0 70 70" fill="none" xmlns="http://www.w3.org/2000/svg">
<g id="fi_10379236">
<g id="Vector" filter="url(#filter0_ddddii_469_2085)">
<path fill-rule="evenodd" clip-rule="evenodd" d="M40.7333 14.3905H21.1112C20.5194 14.3905 20.0397 13.9109 20.0397 13.3191V5.4452C20.0397 4.85346 20.5194 4.37378 21.1112 4.37378H40.7333C41.3251 4.37378 41.8047 4.85346 41.8047 5.4452V13.3189C41.8049 13.9107 41.3252 14.3905 40.7333 14.3905Z" fill="white"/>
<path fill-rule="evenodd" clip-rule="evenodd" d="M36.9318 23.4721H33.1327V19.6726H27.7215V23.4721H23.9222V28.8833H27.7215V32.6824H33.1327V28.8833H36.9318V23.4721Z" fill="white"/>
<path d="M18.0319 37.3262C17.3718 37.3262 16.8367 37.8614 16.8367 38.5214C16.8367 39.1815 17.3718 39.7166 18.0319 39.7166H35.8156C36.4756 39.7166 37.0108 39.1815 37.0108 38.5214C37.0108 37.8614 36.4756 37.3262 35.8156 37.3262H18.0319Z" fill="white"/>
<path d="M18.0319 43.1651C17.3718 43.1651 16.8367 43.7003 16.8367 44.3604C16.8367 45.0204 17.3718 45.5556 18.0319 45.5556H35.8156C36.4756 45.5556 37.0108 45.0204 37.0108 44.3604C37.0108 43.7003 36.4756 43.1651 35.8156 43.1651H18.0319Z" fill="white"/>
<path d="M18.0319 49.0043C17.3718 49.0043 16.8367 49.5395 16.8367 50.1995C16.8367 50.8596 17.3718 51.3948 18.0319 51.3948H35.8156C36.4756 51.3948 37.0108 50.8596 37.0108 50.1995C37.0108 49.5395 36.4756 49.0043 35.8156 49.0043H18.0319Z" fill="white"/>
<path d="M18.0319 54.8433C17.3718 54.8433 16.8367 55.3784 16.8367 56.0385C16.8367 56.6986 17.3718 57.2337 18.0319 57.2337H35.8156C36.4756 57.2337 37.0108 56.6986 37.0108 56.0385C37.0108 55.3784 36.4756 54.8433 35.8156 54.8433H18.0319Z" fill="white"/>
<path fill-rule="evenodd" clip-rule="evenodd" d="M58.3628 34.8479C58.4346 35.772 58.7537 36.6432 59.2736 37.315L61.1755 39.7736C61.5024 40.1963 61.7282 40.7201 61.8332 41.2849H40.7836C40.8887 40.7199 41.1143 40.1963 41.4413 39.7736L43.3432 37.315C43.8628 36.6432 44.1822 35.772 44.2539 34.8479H58.3628ZM61.9004 61.0296V62.617C61.9004 64.3953 60.7518 65.8371 59.3354 65.8371H43.2816C41.8649 65.8371 40.7165 64.3955 40.7165 62.617V61.0296H61.9004Z" fill="white"/>
<path fill-rule="evenodd" clip-rule="evenodd" d="M59.2311 33.2089H43.3851V29.2522C43.3851 28.2585 44.1907 27.4529 45.1844 27.4529H57.4316C58.4253 27.4529 59.2309 28.2585 59.2309 29.2522L59.2311 33.2089Z" fill="white"/>
<path fill-rule="evenodd" clip-rule="evenodd" d="M40.716 59.3907H61.9001V42.9239H40.716V59.3907ZM54.1738 48.2916H56.2281C56.6807 48.2916 57.0476 48.6585 57.0476 49.1111V53.2036C57.0476 53.6562 56.6807 54.0231 56.2281 54.0231H54.1738V56.0773C54.1738 56.5299 53.8069 56.8968 53.3543 56.8968H49.2619C48.8093 56.8968 48.4424 56.5299 48.4424 56.0773V54.0231H46.3881C45.9355 54.0231 45.5686 53.6562 45.5686 53.2036V49.1111C45.5686 48.6585 45.9355 48.2916 46.3881 48.2916H48.4424V46.2374C48.4424 45.7848 48.8093 45.4179 49.2619 45.4179H53.3543C53.8069 45.4179 54.1738 45.7848 54.1738 46.2374V48.2916Z" fill="white"/>
<path d="M55.4084 49.9308H53.3542C52.9016 49.9308 52.5347 49.5639 52.5347 49.1113V47.057H50.0813V49.1113C50.0813 49.5639 49.7144 49.9308 49.2619 49.9308H47.2076V52.3841H49.2619C49.7144 52.3841 50.0813 52.751 50.0813 53.2036V55.2579H52.5347V53.2036C52.5347 52.751 52.9016 52.3841 53.3542 52.3841H55.4084V49.9308Z" fill="white"/>
<path fill-rule="evenodd" clip-rule="evenodd" d="M12.5732 58.7199V14.2411C12.5732 12.8049 13.7375 11.6404 15.1739 11.6404H18.4008V7.12391H15.1739C11.3082 7.12391 8.17419 10.2579 8.17419 14.1239V58.8374C8.17419 62.7031 11.3082 65.8371 15.1739 65.8371H40.1289C39.4531 64.9359 39.0774 63.7696 39.0774 62.617V61.321H15.1739C13.7377 61.321 12.5732 60.1561 12.5732 58.7199Z" fill="white"/>
<path fill-rule="evenodd" clip-rule="evenodd" d="M53.6705 14.1236C53.6705 10.2579 50.5364 7.12391 46.6711 7.12391H43.4439V11.6404H46.6711C48.1073 11.6404 49.2714 12.8047 49.2714 14.2411V25.814H53.6705V14.1236Z" fill="white"/>
</g>
</g>
<defs>
<filter id="filter0_ddddii_469_2085" x="5.17419" y="1.37378" width="60.7262" height="68.4634" filterUnits="userSpaceOnUse" color-interpolation-filters="sRGB">
<feFlood flood-opacity="0" result="BackgroundImageFix"/>
<feColorMatrix in="SourceAlpha" type="matrix" values="0 0 0 0 0 0 0 0 0 0 0 0 0 0 0 0 0 0 127 0" result="hardAlpha"/>
<feOffset dx="1" dy="1"/>
<feGaussianBlur stdDeviation="1.5"/>
<feColorMatrix type="matrix" values="0 0 0 0 0.384314 0 0 0 0 0.384314 0 0 0 0 0.384314 0 0 0 0.9 0"/>
<feBlend mode="normal" in2="BackgroundImageFix" result="effect1_dropShadow_469_2085"/>
<feColorMatrix in="SourceAlpha" type="matrix" values="0 0 0 0 0 0 0 0 0 0 0 0 0 0 0 0 0 0 127 0" result="hardAlpha"/>
<feOffset dx="-1" dy="-1"/>
<feGaussianBlur stdDeviation="1"/>
<feColorMatrix type="matrix" values="0 0 0 0 1 0 0 0 0 1 0 0 0 0 1 0 0 0 0.9 0"/>
<feBlend mode="normal" in2="effect1_dropShadow_469_2085" result="effect2_dropShadow_469_2085"/>
<feColorMatrix in="SourceAlpha" type="matrix" values="0 0 0 0 0 0 0 0 0 0 0 0 0 0 0 0 0 0 127 0" result="hardAlpha"/>
<feOffset dx="1" dy="-1"/>
<feGaussianBlur stdDeviation="1"/>
<feColorMatrix type="matrix" values="0 0 0 0 0.384314 0 0 0 0 0.384314 0 0 0 0 0.384314 0 0 0 0.2 0"/>
<feBlend mode="normal" in2="effect2_dropShadow_469_2085" result="effect3_dropShadow_469_2085"/>
<feColorMatrix in="SourceAlpha" type="matrix" values="0 0 0 0 0 0 0 0 0 0 0 0 0 0 0 0 0 0 127 0" result="hardAlpha"/>
<feOffset dx="-1" dy="1"/>
<feGaussianBlur stdDeviation="1"/>
<feColorMatrix type="matrix" values="0 0 0 0 0.384314 0 0 0 0 0.384314 0 0 0 0 0.384314 0 0 0 0.2 0"/>
<feBlend mode="normal" in2="effect3_dropShadow_469_2085" result="effect4_dropShadow_469_2085"/>
<feBlend mode="normal" in="SourceGraphic" in2="effect4_dropShadow_469_2085" result="shape"/>
<feColorMatrix in="SourceAlpha" type="matrix" values="0 0 0 0 0 0 0 0 0 0 0 0 0 0 0 0 0 0 127 0" result="hardAlpha"/>
<feOffset dx="-1" dy="-1"/>
<feGaussianBlur stdDeviation="1"/>
<feComposite in2="hardAlpha" operator="arithmetic" k2="-1" k3="1"/>
<feColorMatrix type="matrix" values="0 0 0 0 0.384314 0 0 0 0 0.384314 0 0 0 0 0.384314 0 0 0 0.5 0"/>
<feBlend mode="normal" in2="shape" result="effect5_innerShadow_469_2085"/>
<feColorMatrix in="SourceAlpha" type="matrix" values="0 0 0 0 0 0 0 0 0 0 0 0 0 0 0 0 0 0 127 0" result="hardAlpha"/>
<feOffset dx="1" dy="1"/>
<feGaussianBlur stdDeviation="1"/>
<feComposite in2="hardAlpha" operator="arithmetic" k2="-1" k3="1"/>
<feColorMatrix type="matrix" values="0 0 0 0 1 0 0 0 0 1 0 0 0 0 1 0 0 0 0.3 0"/>
<feBlend mode="normal" in2="effect5_innerShadow_469_2085" result="effect6_innerShadow_469_2085"/>
</filter>
</defs>
</svg>
