<svg width="37" height="36" viewBox="0 0 37 36" fill="none" xmlns="http://www.w3.org/2000/svg">
<g id="Social Media Icon Square/Twitter">
<g id="Social Media Icon">
<rect x="0.5" width="36" height="36" rx="8" fill="white"/>
<rect x="0.5" width="36" height="36" rx="8" fill="url(#paint0_linear_469_2374)"/>
</g>
<path id="Twitter" d="M21.5271 10.7012V10.698H22.3711L22.6794 10.7596C22.885 10.7996 23.0717 10.852 23.2394 10.9168C23.4071 10.9816 23.5694 11.0573 23.7263 11.1437C23.8832 11.2302 24.0255 11.3182 24.1532 11.4079C24.2798 11.4965 24.3934 11.5905 24.4941 11.69C24.5936 11.7904 24.7489 11.8164 24.9599 11.7678C25.1709 11.7191 25.3981 11.6516 25.6416 11.5651C25.885 11.4787 26.1258 11.3815 26.3638 11.2734C26.6019 11.1653 26.7469 11.0967 26.7988 11.0675C26.8497 11.0373 26.8768 11.0211 26.88 11.0189L26.8832 11.0141L26.8995 11.006L26.9157 10.9979L26.9319 10.9897L26.9482 10.9816L26.9514 10.9768L26.9563 10.9735L26.9612 10.9703L26.9644 10.9654L26.9806 10.9606L26.9968 10.9573L26.9936 10.9816L26.9887 11.006L26.9806 11.0303L26.9725 11.0546L26.9644 11.0708L26.9563 11.087L26.9482 11.1113C26.9427 11.1275 26.9373 11.1491 26.9319 11.1761C26.9265 11.2032 26.8751 11.3112 26.7777 11.5003C26.6803 11.6894 26.5586 11.8812 26.4125 12.0757C26.2665 12.2702 26.1355 12.4172 26.0198 12.5166C25.9029 12.6171 25.8255 12.6873 25.7876 12.7273C25.7498 12.7683 25.7038 12.8062 25.6497 12.8407L25.5685 12.8942L25.5523 12.9023L25.5361 12.9104L25.5328 12.9153L25.528 12.9186L25.5231 12.9218L25.5198 12.9267L25.5036 12.9348L25.4874 12.9429L25.4841 12.9477L25.4793 12.951L25.4744 12.9542L25.4711 12.9591L25.4679 12.9639L25.463 12.9672L25.4582 12.9704L25.4549 12.9753H25.5361L25.9905 12.878C26.2935 12.8132 26.583 12.7349 26.8589 12.643L27.2971 12.4971L27.3458 12.4809L27.3702 12.4728L27.3864 12.4647L27.4026 12.4566L27.4188 12.4485L27.4351 12.4404L27.4675 12.4355L27.5 12.4323V12.4647L27.4919 12.468L27.4838 12.4728L27.4805 12.4777L27.4757 12.4809L27.4708 12.4842L27.4675 12.489L27.4643 12.4939L27.4594 12.4971L27.4546 12.5004L27.4513 12.5052L27.4481 12.5101L27.4432 12.5133L27.4351 12.5295L27.427 12.5458L27.4221 12.549C27.4199 12.5522 27.3512 12.6441 27.216 12.8245C27.0807 13.0061 27.0077 13.0979 26.9968 13.1001C26.986 13.1033 26.9709 13.1195 26.9514 13.1487C26.933 13.179 26.8183 13.2994 26.6073 13.5102C26.3963 13.7209 26.1897 13.9083 25.9873 14.0726C25.7839 14.2379 25.6811 14.4411 25.6789 14.682C25.6757 14.9219 25.6632 15.1931 25.6416 15.4957C25.6199 15.7982 25.5794 16.1251 25.5198 16.4763C25.4603 16.8275 25.3684 17.2246 25.2439 17.6676C25.1195 18.1106 24.968 18.5429 24.7894 18.9643C24.6109 19.3857 24.4243 19.7639 24.2295 20.0989C24.0347 20.4339 23.8562 20.7175 23.6939 20.9498C23.5316 21.1821 23.3666 21.4009 23.1988 21.6063C23.0311 21.8116 22.819 22.0428 22.5626 22.3C22.3051 22.5561 22.1644 22.6965 22.1406 22.7214C22.1157 22.7452 22.0097 22.8338 21.8225 22.9872C21.6363 23.1417 21.4362 23.2962 21.2219 23.4508C21.0088 23.6042 20.8129 23.7323 20.6344 23.8349C20.4558 23.9376 20.2405 24.0548 19.9884 24.1866C19.7373 24.3195 19.4657 24.4427 19.1736 24.5562C18.8814 24.6696 18.573 24.775 18.2484 24.8723C17.9238 24.9695 17.61 25.0451 17.307 25.0992C17.0041 25.1532 16.6605 25.1991 16.2764 25.2369L15.7002 25.2937V25.3018H14.6452V25.2937L14.5072 25.2856C14.4152 25.2802 14.3395 25.2748 14.28 25.2694C14.2205 25.264 13.9959 25.2342 13.6064 25.1802C13.2169 25.1262 12.9112 25.0721 12.6894 25.0181C12.4675 24.9641 12.1375 24.8614 11.6993 24.7102C11.261 24.5589 10.8861 24.406 10.5745 24.2515C10.2639 24.098 10.0692 24.0008 9.99017 23.9597C9.91226 23.9197 9.82462 23.87 9.72723 23.8106L9.58115 23.7215L9.57792 23.7166L9.57304 23.7134L9.56817 23.7101L9.56492 23.7052L9.54869 23.6971L9.53246 23.689L9.52923 23.6842L9.52435 23.6809L9.51948 23.6777L9.51623 23.6728L9.513 23.668L9.50812 23.6647H9.5V23.6323L9.51623 23.6355L9.53246 23.6404L9.6055 23.6485C9.65419 23.6539 9.78675 23.662 10.0032 23.6728C10.2196 23.6836 10.4495 23.6836 10.693 23.6728C10.9364 23.662 11.1853 23.6377 11.4396 23.5999C11.6939 23.5621 11.9941 23.4972 12.3404 23.4054C12.6867 23.3135 13.0048 23.2044 13.2948 23.078C13.5837 22.9505 13.7893 22.8554 13.9116 22.7927C14.0327 22.7311 14.2178 22.6166 14.4666 22.4491L14.8399 22.1979L14.8432 22.193L14.8481 22.1898L14.8529 22.1865L14.8562 22.1817L14.8594 22.1768L14.8643 22.1736L14.8692 22.1703L14.8724 22.1654L14.8886 22.1606L14.9049 22.1573L14.9081 22.1411L14.913 22.1249L14.9179 22.1217L14.9211 22.1168L14.7913 22.1087C14.7047 22.1033 14.6208 22.0979 14.5397 22.0925C14.4585 22.0871 14.3314 22.0628 14.1583 22.0196C13.9851 21.9763 13.7985 21.9115 13.5983 21.8251C13.3981 21.7386 13.2033 21.636 13.014 21.5171C12.8246 21.3983 12.6877 21.2994 12.6033 21.2205C12.52 21.1427 12.4118 21.0325 12.2787 20.8898C12.1467 20.7461 12.032 20.5986 11.9346 20.4474C11.8372 20.2961 11.7442 20.1216 11.6555 19.9238L11.5207 19.6288L11.5126 19.6045L11.5045 19.5802L11.4996 19.564L11.4964 19.5478L11.5207 19.551L11.5451 19.5559L11.7236 19.5802C11.8427 19.5964 12.0293 19.6018 12.2836 19.5964C12.5379 19.591 12.7137 19.5802 12.8111 19.564C12.9085 19.5478 12.968 19.537 12.9896 19.5316L13.0221 19.5235L13.0627 19.5154L13.1032 19.5073L13.1065 19.5024L13.1114 19.4992L13.1162 19.4959L13.1195 19.4911L13.087 19.483L13.0546 19.4749L13.0221 19.4667L12.9896 19.4586L12.9572 19.4505C12.9355 19.4451 12.8977 19.4343 12.8436 19.4181C12.7895 19.4019 12.6434 19.3425 12.4053 19.2398C12.1673 19.1372 11.9779 19.0372 11.8372 18.94C11.6962 18.8424 11.5618 18.7358 11.4347 18.6207C11.3081 18.504 11.1691 18.3538 11.0176 18.1701C10.8661 17.9864 10.7308 17.773 10.6118 17.5298C10.4928 17.2867 10.4035 17.0544 10.344 16.8329C10.2847 16.6127 10.2456 16.3875 10.2272 16.1602L10.1979 15.8199L10.2142 15.8231L10.2304 15.828L10.2466 15.8361L10.2628 15.8442L10.2791 15.8523L10.2953 15.8604L10.5469 15.9738C10.7146 16.0495 10.9229 16.1143 11.1718 16.1683C11.4207 16.2224 11.5694 16.2521 11.6181 16.2575L11.6912 16.2656H11.8372L11.834 16.2607L11.8291 16.2575L11.8243 16.2542L11.821 16.2494L11.8178 16.2445L11.8129 16.2413L11.808 16.238L11.8048 16.2332L11.7885 16.2251L11.7723 16.217L11.7691 16.2121L11.7642 16.2089L11.7593 16.2056L11.7561 16.2008L11.7399 16.1926L11.7236 16.1845L11.7204 16.1797C11.7171 16.1775 11.6706 16.1429 11.5808 16.0759C11.4921 16.0079 11.399 15.9198 11.3016 15.8118C11.2042 15.7037 11.1069 15.5902 11.0095 15.4714C10.9119 15.3522 10.825 15.2248 10.7498 15.0905C10.674 14.9554 10.594 14.7836 10.5096 14.575C10.4262 14.3676 10.3629 14.1585 10.3197 13.9478C10.2764 13.7371 10.252 13.5291 10.2466 13.3238C10.2412 13.1184 10.2466 12.9429 10.2628 12.797C10.2791 12.6511 10.3115 12.4863 10.3602 12.3026C10.4089 12.1189 10.4793 11.9244 10.5712 11.7191L10.7092 11.4112L10.7173 11.3869L10.7254 11.3625L10.7303 11.3593L10.7335 11.3544L10.7368 11.3496L10.7417 11.3463L10.7465 11.3496L10.7498 11.3544L10.753 11.3593L10.7579 11.3625L10.7628 11.3658L10.766 11.3706L10.7693 11.3755L10.7741 11.3788L10.7822 11.395L10.7904 11.4112L10.7952 11.4144L10.7985 11.4193L11.0176 11.6624C11.1637 11.8245 11.3368 12.0055 11.537 12.2054C11.7372 12.4053 11.8481 12.509 11.8697 12.5166C11.8914 12.5252 11.9184 12.5501 11.9509 12.5911C11.9833 12.6311 12.0915 12.7268 12.2755 12.878C12.4594 13.0293 12.7002 13.2049 12.9977 13.4048C13.2953 13.6047 13.6253 13.8019 13.9878 13.9964C14.3503 14.1909 14.7399 14.3665 15.1564 14.5232C15.573 14.6799 15.8652 14.7825 16.0329 14.8311C16.2006 14.8798 16.4874 14.9419 16.8931 15.0175C17.2989 15.0932 17.6046 15.1418 17.8102 15.1634C18.0158 15.185 18.1565 15.1975 18.2322 15.2007L18.3458 15.2039L18.3426 15.1796L18.3377 15.1553L18.3052 14.9527C18.2836 14.8176 18.2728 14.6285 18.2728 14.3854C18.2728 14.1423 18.2917 13.9181 18.3296 13.7128C18.3675 13.5075 18.4243 13.2994 18.5 13.0887C18.5757 12.878 18.6499 12.7089 18.7224 12.5814C18.796 12.455 18.8923 12.3107 19.0113 12.1487C19.1303 11.9866 19.2845 11.8191 19.4739 11.6462C19.6632 11.4733 19.8796 11.3193 20.1231 11.1843C20.3665 11.0492 20.5911 10.9465 20.7967 10.8763C21.0023 10.8061 21.1754 10.7601 21.3161 10.7385C21.4567 10.7169 21.5271 10.7045 21.5271 10.7012Z" fill="white"/>
</g>
<defs>
<linearGradient id="paint0_linear_469_2374" x1="38.6239" y1="10.9264" x2="3.28529" y2="17.7955" gradientUnits="userSpaceOnUse">
<stop stop-color="#005D69"/>
<stop offset="1" stop-color="#60F1FB"/>
</linearGradient>
</defs>
</svg>
