<svg width="37" height="36" viewBox="0 0 37 36" fill="none" xmlns="http://www.w3.org/2000/svg">
<g id="Social Media Icon Square/YouTube">
<g id="Group 73">
<g id="Social Media Icon">
<rect x="0.5" width="36" height="36" rx="8" fill="white"/>
<rect x="0.5" width="36" height="36" rx="8" fill="url(#paint0_linear_469_2388)"/>
</g>
<path id="YouTube" d="M18.9386 24.9799L14.8764 24.904C13.5612 24.8775 12.2427 24.9304 10.9532 24.6563C8.99165 24.2468 8.85268 22.2389 8.70727 20.5546C8.50691 18.1868 8.58448 15.776 8.96258 13.4279C9.17604 12.1104 10.0161 11.3242 11.3152 11.2386C15.7005 10.9282 20.115 10.965 24.4906 11.1098C24.9528 11.1231 25.4181 11.1957 25.8737 11.2783C28.1231 11.6812 28.1779 13.9566 28.3237 15.8721C28.4691 17.8073 28.4077 19.7524 28.1298 21.6745C27.9068 23.2659 27.4802 24.6004 25.6798 24.7293C23.4241 24.8977 21.2201 25.0333 18.958 24.9902C18.9581 24.9799 18.9451 24.9799 18.9386 24.9799ZM16.5505 20.9509C18.2504 19.9535 19.9178 18.9727 21.608 17.982C19.9049 16.9846 18.2406 16.0038 16.5505 15.0131V20.9509Z" fill="white"/>
</g>
</g>
<defs>
<linearGradient id="paint0_linear_469_2388" x1="38.6239" y1="10.9264" x2="3.28529" y2="17.7955" gradientUnits="userSpaceOnUse">
<stop stop-color="#005D69"/>
<stop offset="1" stop-color="#60F1FB"/>
</linearGradient>
</defs>
</svg>
