<svg width="35" height="35" viewBox="0 0 35 35" fill="none" xmlns="http://www.w3.org/2000/svg">
<path d="M2.91663 27.7084C2.91663 30.1876 4.81246 32.0834 7.29163 32.0834H27.7083C30.1875 32.0834 32.0833 30.1876 32.0833 27.7084V16.0417H2.91663V27.7084ZM27.7083 5.83341H24.7916V4.37508C24.7916 3.50008 24.2083 2.91675 23.3333 2.91675C22.4583 2.91675 21.875 3.50008 21.875 4.37508V5.83341H13.125V4.37508C13.125 3.50008 12.5416 2.91675 11.6666 2.91675C10.7916 2.91675 10.2083 3.50008 10.2083 4.37508V5.83341H7.29163C4.81246 5.83341 2.91663 7.72925 2.91663 10.2084V13.1251H32.0833V10.2084C32.0833 7.72925 30.1875 5.83341 27.7083 5.83341Z" fill="white"/>
</svg>
