<svg width="40" height="40" viewBox="0 0 40 40" fill="none" xmlns="http://www.w3.org/2000/svg">
<path d="M4.59157 24.5266L5.45324 27.7466C6.45991 31.5049 6.96491 33.3849 8.10657 34.6032C9.00765 35.5646 10.1734 36.2373 11.4566 36.5366C13.0832 36.9166 14.9632 36.4132 18.7232 35.4066C22.4799 34.3999 24.3599 33.8966 25.5782 32.7549C25.6782 32.6599 25.7782 32.5616 25.8716 32.4616C25.304 32.41 24.7398 32.3265 24.1816 32.2116C23.0216 31.9816 21.6432 31.6116 20.0132 31.1749L19.8349 31.1266L19.7932 31.1166C18.0199 30.6399 16.5382 30.2432 15.3549 29.8166C14.1099 29.3666 12.9799 28.8116 12.0182 27.9116C10.6954 26.6722 9.76977 25.0686 9.35824 23.3032C9.05824 22.0216 9.14491 20.7649 9.37824 19.4632C9.60157 18.2149 10.0016 16.7182 10.4816 14.9266L11.3732 11.6032L11.4032 11.4866C8.20324 12.3482 6.51824 12.8582 5.39491 13.9099C4.4324 14.8117 3.75899 15.9787 3.45991 17.2632C3.07991 18.8882 3.58324 20.7682 4.59157 24.5266Z" fill="white"/>
<path fill-rule="evenodd" clip-rule="evenodd" d="M34.7165 17.8582L33.8532 21.0782C32.8448 24.8366 32.3415 26.7166 31.1998 27.9349C30.299 28.8969 29.1332 29.5702 27.8498 29.8699C27.6882 29.9082 27.5248 29.9366 27.3582 29.9566C25.8332 30.1449 23.9715 29.6466 20.5848 28.7399C16.8265 27.7316 14.9465 27.2282 13.7282 26.0866C12.7659 25.1853 12.0926 24.0189 11.7932 22.7349C11.4132 21.1082 11.9165 19.2299 12.9248 15.4716L13.7865 12.2516L14.1932 10.7432C14.9515 7.96657 15.4615 6.43824 16.4398 5.39324C17.3409 4.43191 18.5066 3.75914 19.7898 3.45991C21.4165 3.07991 23.2965 3.58324 27.0565 4.59157C30.8132 5.59824 32.6932 6.10157 33.9115 7.24157C34.874 8.14333 35.5474 9.31033 35.8465 10.5949C36.2265 12.2216 35.7232 14.0999 34.7165 17.8582ZM18.4198 16.3416C18.4624 16.183 18.5357 16.0343 18.6357 15.9041C18.7357 15.7739 18.8604 15.6646 19.0027 15.5826C19.1449 15.5006 19.3019 15.4474 19.4647 15.426C19.6275 15.4047 19.7929 15.4156 19.9515 15.4582L28.0015 17.6166C28.1642 17.6552 28.3176 17.726 28.4525 17.825C28.5873 17.9239 28.701 18.0489 28.7867 18.1926C28.8723 18.3362 28.9283 18.4956 28.9513 18.6613C28.9742 18.827 28.9637 18.9956 28.9203 19.1572C28.8769 19.3187 28.8015 19.4699 28.6986 19.6018C28.5957 19.7336 28.4674 19.8435 28.3213 19.9249C28.1751 20.0063 28.0142 20.0575 27.8479 20.0756C27.6816 20.0936 27.5133 20.0781 27.3532 20.0299L19.3032 17.8732C18.9832 17.7873 18.7105 17.5779 18.5449 17.291C18.3793 17.0042 18.3343 16.6616 18.4198 16.3416ZM17.1265 21.1716C17.2124 20.8517 17.4218 20.5789 17.7087 20.4133C17.9956 20.2477 18.3365 20.2027 18.6565 20.2882L23.4865 21.5832C23.65 21.621 23.8043 21.6913 23.9401 21.7899C24.0759 21.8886 24.1904 22.0135 24.2768 22.1574C24.3633 22.3012 24.4199 22.461 24.4432 22.6272C24.4666 22.7934 24.4562 22.9626 24.4128 23.1248C24.3694 23.2869 24.2937 23.4386 24.1904 23.5708C24.087 23.7031 23.9581 23.8132 23.8114 23.8945C23.6646 23.9759 23.5029 24.0268 23.336 24.0444C23.1691 24.0619 23.0003 24.0457 22.8398 23.9966L18.0098 22.7032C17.8512 22.6607 17.7026 22.5873 17.5724 22.4873C17.4421 22.3873 17.3329 22.2626 17.2508 22.1204C17.1688 21.9782 17.1156 21.8212 17.0943 21.6584C17.0729 21.4956 17.0839 21.3301 17.1265 21.1716Z" fill="white"/>
</svg>
