<svg width="26" height="26" viewBox="0 0 26 26" fill="none" xmlns="http://www.w3.org/2000/svg">
<path d="M22.75 7.04163C22.75 9.13246 21.0492 10.8333 18.9583 10.8333C16.8675 10.8333 15.1667 9.13246 15.1667 7.04163C15.1667 4.9508 16.8675 3.24996 18.9583 3.24996C21.0492 3.24996 22.75 4.9508 22.75 7.04163ZM20.5833 12.7725C20.0417 12.9133 19.5 13 18.9583 13C17.379 12.9971 15.8651 12.3684 14.7483 11.2516C13.6315 10.1349 13.0029 8.621 13 7.04163C13 5.44913 13.6283 4.0083 14.625 2.9358C14.4284 2.6948 14.1805 2.5007 13.8994 2.36764C13.6183 2.23458 13.311 2.16591 13 2.16663C11.8083 2.16663 10.8333 3.14163 10.8333 4.3333V4.64746C7.61583 5.6008 5.41667 8.5583 5.41667 11.9166V18.4166L3.25 20.5833V21.6666H22.75V20.5833L20.5833 18.4166V12.7725ZM13 24.9166C14.2025 24.9166 15.1667 23.9525 15.1667 22.75H10.8333C10.8333 23.3246 11.0616 23.8757 11.4679 24.282C11.8743 24.6884 12.4254 24.9166 13 24.9166Z" fill="#84D9FF"/>
</svg>
