<svg width="40" height="40" viewBox="0 0 40 40" fill="none" xmlns="http://www.w3.org/2000/svg">
<path d="M9 8C7.67392 8 6.40215 8.52678 5.46447 9.46447C4.52678 10.4021 4 11.6739 4 13V27C4 28.3261 4.52678 29.5979 5.46447 30.5355C6.40215 31.4732 7.67392 32 9 32H18.414C18.1384 31.0238 17.9991 30.0143 18 29C17.999 27.9857 18.1383 26.9761 18.414 26H11C10.7348 26 10.4804 25.8946 10.2929 25.7071C10.1054 25.5196 10 25.2652 10 25C10 24.7348 10.1054 24.4804 10.2929 24.2929C10.4804 24.1054 10.7348 24 11 24H19.2C19.776 22.874 20.54 21.86 21.45 21H11C10.7348 21 10.4804 20.8946 10.2929 20.7071C10.1054 20.5196 10 20.2652 10 20C10 19.7348 10.1054 19.4804 10.2929 19.2929C10.4804 19.1054 10.7348 19 11 19H24.412C25.8511 18.3391 27.4164 17.998 29 18C31.66 18 34.1 18.944 36 20.514V13C36 11.6739 35.4732 10.4021 34.5355 9.46447C33.5979 8.52678 32.3261 8 31 8H9ZM10 15C10 14.7348 10.1054 14.4804 10.2929 14.2929C10.4804 14.1054 10.7348 14 11 14H19C19.2652 14 19.5196 14.1054 19.7071 14.2929C19.8946 14.4804 20 14.7348 20 15C20 15.2652 19.8946 15.5196 19.7071 15.7071C19.5196 15.8946 19.2652 16 19 16H11C10.7348 16 10.4804 15.8946 10.2929 15.7071C10.1054 15.5196 10 15.2652 10 15ZM29 36C28.0807 36 27.1705 35.8189 26.3212 35.4672C25.4719 35.1154 24.7003 34.5998 24.0503 33.9497C23.4002 33.2997 22.8846 32.5281 22.5328 31.6788C22.1811 30.8295 22 29.9193 22 29C22 28.0807 22.1811 27.1705 22.5328 26.3212C22.8846 25.4719 23.4002 24.7003 24.0503 24.0503C24.7003 23.4002 25.4719 22.8846 26.3212 22.5328C27.1705 22.1811 28.0807 22 29 22C30.8565 22 32.637 22.7375 33.9497 24.0503C35.2625 25.363 36 27.1435 36 29C36 30.8565 35.2625 32.637 33.9497 33.9497C32.637 35.2625 30.8565 36 29 36ZM29 38C31.3869 38 33.6761 37.0518 35.364 35.364C37.0518 33.6761 38 31.3869 38 29C38 26.6131 37.0518 24.3239 35.364 22.636C33.6761 20.9482 31.3869 20 29 20C26.6131 20 24.3239 20.9482 22.636 22.636C20.9482 24.3239 20 26.6131 20 29C20 31.3869 20.9482 33.6761 22.636 35.364C24.3239 37.0518 26.6131 38 29 38ZM29 34C30.3261 34 31.5979 33.4732 32.5355 32.5355C33.4732 31.5979 34 30.3261 34 29C34 27.6739 33.4732 26.4021 32.5355 25.4645C31.5979 24.5268 30.3261 24 29 24C27.6739 24 26.4021 24.5268 25.4645 25.4645C24.5268 26.4021 24 27.6739 24 29C24 30.3261 24.5268 31.5979 25.4645 32.5355C26.4021 33.4732 27.6739 34 29 34Z" fill="white"/>
</svg>
