<svg width="35" height="36" viewBox="0 0 35 36" fill="none" xmlns="http://www.w3.org/2000/svg">
<path d="M7.29167 31.125C6.48959 31.125 5.80271 30.8392 5.23104 30.2675C4.65938 29.6958 4.37403 29.0094 4.375 28.2083V7.79167C4.375 6.98959 4.66084 6.30271 5.2325 5.73104C5.80417 5.15938 6.49056 4.87403 7.29167 4.875H27.7083C28.5104 4.875 29.1973 5.16084 29.769 5.7325C30.3406 6.30417 30.626 6.99056 30.625 7.79167V17.5625C30.1632 17.3438 29.6892 17.1551 29.2031 16.9967C28.717 16.8382 28.2188 16.723 27.7083 16.651V7.79167H7.29167V28.2083H16.1146C16.1875 28.7431 16.3032 29.2535 16.4617 29.7396C16.6201 30.2257 16.8083 30.6875 17.026 31.125H7.29167ZM7.29167 26.75V28.2083V7.79167V16.651V16.5417V26.75ZM10.2083 25.2917H16.151C16.224 24.7813 16.3397 24.283 16.4981 23.7969C16.6566 23.3108 16.8326 22.8368 17.026 22.375H10.2083V25.2917ZM10.2083 19.4583H19.1042C19.8819 18.7292 20.7511 18.1215 21.7117 17.6354C22.6722 17.1493 23.6989 16.8212 24.7917 16.651V16.5417H10.2083V19.4583ZM10.2083 13.625H24.7917V10.7083H10.2083V13.625ZM26.25 34.0417C24.2326 34.0417 22.5128 33.3305 21.0904 31.9081C19.6681 30.4858 18.9574 28.7664 18.9583 26.75C18.9583 24.7326 19.6695 23.0128 21.0919 21.5904C22.5142 20.1681 24.2336 19.4574 26.25 19.4583C28.2674 19.4583 29.9872 20.1695 31.4096 21.5919C32.8319 23.0142 33.5426 24.7336 33.5417 26.75C33.5417 28.7674 32.8305 30.4872 31.4081 31.9096C29.9858 33.3319 28.2664 34.0426 26.25 34.0417ZM25.5208 31.125H26.9792V27.4792H30.625V26.0208H26.9792V22.375H25.5208V26.0208H21.875V27.4792H25.5208V31.125Z" fill="white"/>
</svg>
